<mxfile host="app.diagrams.net" modified="2021-12-25T17:32:19.139Z" agent="5.0 (X11)" etag="zoEy6gOgaqNwhbFKTKyR" version="16.0.0" type="github">
  <diagram id="0EXDKUZr2knZyKADkUIG" name="Page-1">
    <mxGraphModel dx="782" dy="418" grid="1" gridSize="10" guides="1" tooltips="1" connect="1" arrows="1" fold="1" page="1" pageScale="1" pageWidth="827" pageHeight="1169" math="0" shadow="0">
      <root>
        <mxCell id="0" />
        <mxCell id="1" parent="0" />
        <mxCell id="avCp6fGm_lvUaz4NOgJ7-12" style="edgeStyle=orthogonalEdgeStyle;rounded=0;orthogonalLoop=1;jettySize=auto;html=1;entryX=0.5;entryY=0;entryDx=0;entryDy=0;" edge="1" parent="1" source="avCp6fGm_lvUaz4NOgJ7-1" target="avCp6fGm_lvUaz4NOgJ7-2">
          <mxGeometry relative="1" as="geometry" />
        </mxCell>
        <mxCell id="avCp6fGm_lvUaz4NOgJ7-1" value="Начало" style="ellipse;whiteSpace=wrap;html=1;" vertex="1" parent="1">
          <mxGeometry x="340" y="40" width="120" height="80" as="geometry" />
        </mxCell>
        <mxCell id="avCp6fGm_lvUaz4NOgJ7-13" style="edgeStyle=orthogonalEdgeStyle;rounded=0;orthogonalLoop=1;jettySize=auto;html=1;entryX=0.5;entryY=0;entryDx=0;entryDy=0;" edge="1" parent="1" source="avCp6fGm_lvUaz4NOgJ7-2" target="avCp6fGm_lvUaz4NOgJ7-3">
          <mxGeometry relative="1" as="geometry" />
        </mxCell>
        <mxCell id="avCp6fGm_lvUaz4NOgJ7-2" value="Ввод: х - Введите числа через пробел" style="shape=parallelogram;perimeter=parallelogramPerimeter;whiteSpace=wrap;html=1;fixedSize=1;" vertex="1" parent="1">
          <mxGeometry x="315" y="150" width="170" height="60" as="geometry" />
        </mxCell>
        <mxCell id="avCp6fGm_lvUaz4NOgJ7-14" style="edgeStyle=orthogonalEdgeStyle;rounded=0;orthogonalLoop=1;jettySize=auto;html=1;entryX=0.5;entryY=0;entryDx=0;entryDy=0;" edge="1" parent="1" source="avCp6fGm_lvUaz4NOgJ7-3" target="avCp6fGm_lvUaz4NOgJ7-4">
          <mxGeometry relative="1" as="geometry" />
        </mxCell>
        <mxCell id="avCp6fGm_lvUaz4NOgJ7-3" value="list(map(int, input(x).split()))" style="rounded=0;whiteSpace=wrap;html=1;" vertex="1" parent="1">
          <mxGeometry x="320" y="240" width="160" height="60" as="geometry" />
        </mxCell>
        <mxCell id="avCp6fGm_lvUaz4NOgJ7-15" style="edgeStyle=orthogonalEdgeStyle;rounded=0;orthogonalLoop=1;jettySize=auto;html=1;entryX=0.5;entryY=0;entryDx=0;entryDy=0;" edge="1" parent="1" source="avCp6fGm_lvUaz4NOgJ7-4" target="avCp6fGm_lvUaz4NOgJ7-5">
          <mxGeometry relative="1" as="geometry" />
        </mxCell>
        <mxCell id="avCp6fGm_lvUaz4NOgJ7-4" value="num = max(x)" style="rounded=0;whiteSpace=wrap;html=1;" vertex="1" parent="1">
          <mxGeometry x="340" y="340" width="120" height="60" as="geometry" />
        </mxCell>
        <mxCell id="avCp6fGm_lvUaz4NOgJ7-16" style="edgeStyle=orthogonalEdgeStyle;rounded=0;orthogonalLoop=1;jettySize=auto;html=1;entryX=0.5;entryY=0;entryDx=0;entryDy=0;" edge="1" parent="1" source="avCp6fGm_lvUaz4NOgJ7-5" target="avCp6fGm_lvUaz4NOgJ7-6">
          <mxGeometry relative="1" as="geometry" />
        </mxCell>
        <mxCell id="avCp6fGm_lvUaz4NOgJ7-5" value="Вывод: Самое большое число ряда num" style="shape=parallelogram;perimeter=parallelogramPerimeter;whiteSpace=wrap;html=1;fixedSize=1;" vertex="1" parent="1">
          <mxGeometry x="315" y="430" width="170" height="60" as="geometry" />
        </mxCell>
        <mxCell id="avCp6fGm_lvUaz4NOgJ7-17" style="edgeStyle=orthogonalEdgeStyle;rounded=0;orthogonalLoop=1;jettySize=auto;html=1;entryX=0.5;entryY=0;entryDx=0;entryDy=0;" edge="1" parent="1" source="avCp6fGm_lvUaz4NOgJ7-6" target="avCp6fGm_lvUaz4NOgJ7-7">
          <mxGeometry relative="1" as="geometry" />
        </mxCell>
        <mxCell id="avCp6fGm_lvUaz4NOgJ7-6" value="sum = 0" style="rounded=0;whiteSpace=wrap;html=1;" vertex="1" parent="1">
          <mxGeometry x="340" y="524.5" width="120" height="60" as="geometry" />
        </mxCell>
        <mxCell id="avCp6fGm_lvUaz4NOgJ7-18" style="edgeStyle=orthogonalEdgeStyle;rounded=0;orthogonalLoop=1;jettySize=auto;html=1;entryX=0.5;entryY=0;entryDx=0;entryDy=0;" edge="1" parent="1" source="avCp6fGm_lvUaz4NOgJ7-7" target="avCp6fGm_lvUaz4NOgJ7-8">
          <mxGeometry relative="1" as="geometry" />
        </mxCell>
        <mxCell id="avCp6fGm_lvUaz4NOgJ7-7" value="i in x" style="rhombus;whiteSpace=wrap;html=1;" vertex="1" parent="1">
          <mxGeometry x="360" y="610" width="80" height="80" as="geometry" />
        </mxCell>
        <mxCell id="avCp6fGm_lvUaz4NOgJ7-19" style="edgeStyle=orthogonalEdgeStyle;rounded=0;orthogonalLoop=1;jettySize=auto;html=1;entryX=0.5;entryY=0;entryDx=0;entryDy=0;" edge="1" parent="1" source="avCp6fGm_lvUaz4NOgJ7-8" target="avCp6fGm_lvUaz4NOgJ7-9">
          <mxGeometry relative="1" as="geometry" />
        </mxCell>
        <mxCell id="avCp6fGm_lvUaz4NOgJ7-8" value="num != 0" style="rhombus;whiteSpace=wrap;html=1;" vertex="1" parent="1">
          <mxGeometry x="360" y="720" width="80" height="80" as="geometry" />
        </mxCell>
        <mxCell id="avCp6fGm_lvUaz4NOgJ7-20" style="edgeStyle=orthogonalEdgeStyle;rounded=0;orthogonalLoop=1;jettySize=auto;html=1;entryX=0.5;entryY=0;entryDx=0;entryDy=0;" edge="1" parent="1" source="avCp6fGm_lvUaz4NOgJ7-9" target="avCp6fGm_lvUaz4NOgJ7-10">
          <mxGeometry relative="1" as="geometry" />
        </mxCell>
        <mxCell id="avCp6fGm_lvUaz4NOgJ7-9" value="sum += num % 10" style="rounded=0;whiteSpace=wrap;html=1;" vertex="1" parent="1">
          <mxGeometry x="340" y="820" width="120" height="60" as="geometry" />
        </mxCell>
        <mxCell id="avCp6fGm_lvUaz4NOgJ7-21" style="edgeStyle=orthogonalEdgeStyle;rounded=0;orthogonalLoop=1;jettySize=auto;html=1;entryX=0.5;entryY=0;entryDx=0;entryDy=0;" edge="1" parent="1" source="avCp6fGm_lvUaz4NOgJ7-10" target="avCp6fGm_lvUaz4NOgJ7-11">
          <mxGeometry relative="1" as="geometry" />
        </mxCell>
        <mxCell id="avCp6fGm_lvUaz4NOgJ7-22" style="edgeStyle=orthogonalEdgeStyle;rounded=0;orthogonalLoop=1;jettySize=auto;html=1;entryX=1;entryY=0.5;entryDx=0;entryDy=0;" edge="1" parent="1" source="avCp6fGm_lvUaz4NOgJ7-10" target="avCp6fGm_lvUaz4NOgJ7-8">
          <mxGeometry relative="1" as="geometry">
            <Array as="points">
              <mxPoint x="490" y="940" />
              <mxPoint x="490" y="760" />
            </Array>
          </mxGeometry>
        </mxCell>
        <mxCell id="avCp6fGm_lvUaz4NOgJ7-10" value="num //= 10" style="rounded=0;whiteSpace=wrap;html=1;" vertex="1" parent="1">
          <mxGeometry x="340" y="910" width="120" height="60" as="geometry" />
        </mxCell>
        <mxCell id="avCp6fGm_lvUaz4NOgJ7-24" style="edgeStyle=orthogonalEdgeStyle;rounded=0;orthogonalLoop=1;jettySize=auto;html=1;entryX=0.5;entryY=0;entryDx=0;entryDy=0;" edge="1" parent="1" source="avCp6fGm_lvUaz4NOgJ7-11" target="avCp6fGm_lvUaz4NOgJ7-23">
          <mxGeometry relative="1" as="geometry" />
        </mxCell>
        <mxCell id="avCp6fGm_lvUaz4NOgJ7-11" value="Вывод: Сумма его цифр sum" style="shape=parallelogram;perimeter=parallelogramPerimeter;whiteSpace=wrap;html=1;fixedSize=1;" vertex="1" parent="1">
          <mxGeometry x="305" y="1000" width="190" height="60" as="geometry" />
        </mxCell>
        <mxCell id="avCp6fGm_lvUaz4NOgJ7-23" value="Конец" style="ellipse;whiteSpace=wrap;html=1;" vertex="1" parent="1">
          <mxGeometry x="340" y="1080" width="120" height="80" as="geometry" />
        </mxCell>
      </root>
    </mxGraphModel>
  </diagram>
</mxfile>
